<svg id="OBJECTS" xmlns="http://www.w3.org/2000/svg" xmlns:xlink="http://www.w3.org/1999/xlink" viewBox="0 0 457.15 332"><defs><style>.cls-1{fill:url(#linear-gradient);}.cls-2,.cls-4,.cls-5{fill:#f7f0c2;}.cls-2,.cls-4,.cls-5,.cls-6{stroke-miterlimit:10;}.cls-2,.cls-5{stroke-width:5px;}.cls-2{stroke:url(#linear-gradient-2);}.cls-3{fill:url(#linear-gradient-3);}.cls-4{stroke-width:7px;stroke:url(#linear-gradient-4);}.cls-5{stroke:url(#linear-gradient-5);}.cls-6{fill:#1d4cb0;stroke:#1d9dcd;stroke-width:2px;}</style><linearGradient id="linear-gradient" x1="354.27" y1="141.25" x2="354.27" y2="414.25" gradientUnits="userSpaceOnUse"><stop offset="0.21" stop-color="#1d9dcd"/><stop offset="0.43" stop-color="#1678ad"/><stop offset="0.91" stop-color="#05195b"/><stop offset="1" stop-color="#01064b"/></linearGradient><linearGradient id="linear-gradient-2" x1="433.46" y1="283.75" x2="585.11" y2="283.75" gradientUnits="userSpaceOnUse"><stop offset="0" stop-color="#1d9dcd"/><stop offset="0.15" stop-color="#1678ad"/><stop offset="0.49" stop-color="#05195b"/><stop offset="0.56" stop-color="#01064b"/><stop offset="1" stop-color="#1d9dcd"/></linearGradient><linearGradient id="linear-gradient-3" x1="354.46" y1="276.75" x2="354.46" y2="383.22" gradientUnits="userSpaceOnUse"><stop offset="0" stop-color="#f7f0c2"/><stop offset="0.15" stop-color="#f2efc4"/><stop offset="0.34" stop-color="#e3edc9"/><stop offset="0.54" stop-color="#c9ead3"/><stop offset="0.76" stop-color="#a6e6df"/><stop offset="0.98" stop-color="#7ae0f0"/><stop offset="1" stop-color="#76e0f1"/></linearGradient><linearGradient id="linear-gradient-4" x1="247.67" y1="167.52" x2="473.35" y2="167.52" gradientUnits="userSpaceOnUse"><stop offset="0" stop-color="#1d9dcd"/><stop offset="0.16" stop-color="#1678ad"/><stop offset="0.51" stop-color="#05195b"/><stop offset="0.58" stop-color="#01064b"/><stop offset="1" stop-color="#1d9dcd"/></linearGradient><linearGradient id="linear-gradient-5" x1="290.63" y1="370.08" x2="180.97" y2="180.14" gradientUnits="userSpaceOnUse"><stop offset="0" stop-color="#1d9dcd"/><stop offset="0.08" stop-color="#1c98c8"/><stop offset="0.17" stop-color="#1989bb"/><stop offset="0.27" stop-color="#1570a6"/><stop offset="0.38" stop-color="#0e4d88"/><stop offset="0.5" stop-color="#062162"/><stop offset="0.56" stop-color="#01064b"/><stop offset="0.56" stop-color="#01084c"/><stop offset="0.67" stop-color="#0b3d7a"/><stop offset="0.77" stop-color="#13669e"/><stop offset="0.86" stop-color="#1884b8"/><stop offset="0.94" stop-color="#1c96c7"/><stop offset="1" stop-color="#1d9dcd"/></linearGradient></defs><title>jwoc_logo</title><g id="Main_Logo" data-name="Main Logo"><path id="Back" class="cls-1" d="M381.09,411.38a111.17,111.17,0,0,0,17.76-4.06c56.2-18,96.73-69.23,96.73-129.57,0-75.39-63.27-136.5-141.31-136.5S213,202.36,213,277.75s63.27,136.5,141.31,136.5h.1a109.08,109.08,0,0,0,16-1.28Z" transform="translate(-127.96 -82.25)"/><path id="C" class="cls-2" d="M568.68,235.35l13.51-34.52a5.19,5.19,0,0,0-4.83-7.08H478.53c-24.62,0-42.57,19.95-42.57,44.56v92.88c0,24.61,18,42.56,42.57,42.56h98.89c3.64,0,6.15-1.65,4.84-5l-13.61-35.57a6.86,6.86,0,0,0-6.39-4.39H474.57a4.6,4.6,0,0,1-4.61-4.6V243.4a4.6,4.6,0,0,1,4.65-4.6l87.63.9A6.83,6.83,0,0,0,568.68,235.35Z" transform="translate(-127.96 -82.25)"/><path id="O" class="cls-3" d="M336.64,382.77c-23.29-6.45-38.73-30.76-36.46-56.55,2.51-28.44,27.09-50.15,55.64-49.45A54.51,54.51,0,0,1,372,382.87s-5,1.88-5-3.12,2.91-19.52-2.71-24.75a.16.16,0,0,1,.08-.29c3.87-.43,36.52-5.18,18.63-41a28.57,28.57,0,0,0,0-14,25.24,25.24,0,0,0-15,6,51.26,51.26,0,0,0-27,0s-8-6-14-6c0,0-4,5-1,14,0,0-18.94,34.9,17.85,41a.13.13,0,0,1,.1.17c-.32.94-2.13,6.23-3,7.86-1,2-11.47,2-13.69-2.15a17.51,17.51,0,0,0-1.59-2.63c-2.21-2.84-6.89-7.77-10.56-4.37a.17.17,0,0,0,0,.27c1.09.88,7.53,6.19,8.67,10.61a4.59,4.59,0,0,0,1.78,2.58,17.64,17.64,0,0,0,14.64,2.9.59.59,0,0,1,.75.57v10.22S340.31,383.79,336.64,382.77Z" transform="translate(-127.96 -82.25)"/><path id="W" class="cls-4" d="M251.71,93.63l73.22,153.76a3.3,3.3,0,0,0,6,0L361,181.75l31,65.64a3.29,3.29,0,0,0,6,0l71.41-153.8a5.51,5.51,0,0,0-5-7.83H436.48a5.54,5.54,0,0,0-5,3.19L395,167.75l-32.08-67a2.1,2.1,0,0,0-3.79,0l-31.13,67L291.44,88.94a5.51,5.51,0,0,0-5-3.19H256.69A5.51,5.51,0,0,0,251.71,93.63Z" transform="translate(-127.96 -82.25)"/><path id="J" class="cls-5" d="M222,334.56c-3,5.54-5.54,11.53-5.54,18.3a33,33,0,1,0,49.47-28.61l.36-94.9A33,33,0,1,0,231,230.86l.46,63.39a79.88,79.88,0,0,0-28-5c-17,0-23.17-28.9-23.17-28.9,8.57-6,16.17-17.87,16.17-29.1A33,33,0,1,0,147,259.86s-4.54,60.39,64.46,67.39C211.46,327.25,224.53,329.86,222,334.56Z" transform="translate(-127.96 -82.25)"/><g id="J_o"><circle id="J_o-2" data-name="J_o" class="cls-6" cx="119.5" cy="269" r="16"/><circle id="J_o-3" data-name="J_o" class="cls-6" cx="119.5" cy="121" r="16"/><circle id="J_o-4" data-name="J_o" class="cls-6" cx="34.5" cy="151" r="16"/></g></g></svg>